<svg width="23" height="9" viewBox="0 0 23 9" fill="none" xmlns="http://www.w3.org/2000/svg">
<path d="M0.51 2.76C0.536667 2.04667 0.77 1.49667 1.21 1.11C1.65 0.723333 2.24667 0.53 3 0.53C3.5 0.53 3.92667 0.616666 4.28 0.79C4.64 0.963333 4.91 1.2 5.09 1.5C5.27667 1.8 5.37 2.13667 5.37 2.51C5.37 2.95 5.26 3.31 5.04 3.59C4.82 3.86333 4.56333 4.05 4.27 4.15V4.19C4.65 4.31667 4.95 4.52667 5.17 4.82C5.39 5.11333 5.5 5.49 5.5 5.95C5.5 6.36333 5.40333 6.73 5.21 7.05C5.02333 7.36333 4.74667 7.61 4.38 7.79C4.02 7.97 3.59 8.06 3.09 8.06C2.29 8.06 1.65 7.86333 1.17 7.47C0.696667 7.07667 0.446667 6.48333 0.42 5.69H2.08C2.08667 5.98333 2.17 6.21667 2.33 6.39C2.49 6.55667 2.72333 6.64 3.03 6.64C3.29 6.64 3.49 6.56667 3.63 6.42C3.77667 6.26667 3.85 6.06667 3.85 5.82C3.85 5.5 3.74667 5.27 3.54 5.13C3.34 4.98333 3.01667 4.91 2.57 4.91H2.25V3.52H2.57C2.91 3.52 3.18333 3.46333 3.39 3.35C3.60333 3.23 3.71 3.02 3.71 2.72C3.71 2.48 3.64333 2.29333 3.51 2.16C3.37667 2.02667 3.19333 1.96 2.96 1.96C2.70667 1.96 2.51667 2.03667 2.39 2.19C2.27 2.34333 2.2 2.53333 2.18 2.76H0.51ZM7.47469 8.08C7.17469 8.08 6.92802 7.99333 6.73469 7.82C6.54802 7.64 6.45469 7.42 6.45469 7.16C6.45469 6.89333 6.54802 6.67 6.73469 6.49C6.92802 6.31 7.17469 6.22 7.47469 6.22C7.76802 6.22 8.00802 6.31 8.19469 6.49C8.38802 6.67 8.48469 6.89333 8.48469 7.16C8.48469 7.42 8.38802 7.64 8.19469 7.82C8.00802 7.99333 7.76802 8.08 7.47469 8.08ZM9.26695 6.63C9.49362 6.45 9.59695 6.36667 9.57695 6.38C10.2303 5.84 10.7436 5.39667 11.117 5.05C11.497 4.70333 11.817 4.34 12.077 3.96C12.337 3.58 12.467 3.21 12.467 2.85C12.467 2.57667 12.4036 2.36333 12.277 2.21C12.1503 2.05667 11.9603 1.98 11.707 1.98C11.4536 1.98 11.2536 2.07667 11.107 2.27C10.967 2.45667 10.897 2.72333 10.897 3.07H9.24695C9.26029 2.50333 9.38029 2.03 9.60695 1.65C9.84029 1.27 10.1436 0.99 10.517 0.81C10.897 0.63 11.317 0.539999 11.777 0.539999C12.5703 0.539999 13.167 0.743333 13.567 1.15C13.9736 1.55667 14.177 2.08667 14.177 2.74C14.177 3.45333 13.9336 4.11667 13.447 4.73C12.9603 5.33667 12.3403 5.93 11.587 6.51H14.287V7.9H9.26695V6.63ZM14.8998 2.54C14.8998 2 15.0532 1.58333 15.3598 1.29C15.6732 0.996666 16.0765 0.85 16.5698 0.85C17.0632 0.85 17.4632 0.996666 17.7698 1.29C18.0765 1.58333 18.2298 2 18.2298 2.54C18.2298 3.08 18.0765 3.49667 17.7698 3.79C17.4632 4.08333 17.0632 4.23 16.5698 4.23C16.0765 4.23 15.6732 4.08333 15.3598 3.79C15.0532 3.49667 14.8998 3.08 14.8998 2.54ZM21.6898 0.959999L17.8398 8H16.1898L20.0398 0.959999H21.6898ZM16.5598 1.85C16.2398 1.85 16.0798 2.08 16.0798 2.54C16.0798 2.99333 16.2398 3.22 16.5598 3.22C16.7132 3.22 16.8332 3.16333 16.9198 3.05C17.0065 2.93667 17.0498 2.76667 17.0498 2.54C17.0498 2.08 16.8865 1.85 16.5598 1.85ZM19.6598 6.42C19.6598 5.88 19.8132 5.46333 20.1198 5.17C20.4265 4.87667 20.8265 4.73 21.3198 4.73C21.8132 4.73 22.2132 4.87667 22.5198 5.17C22.8265 5.46333 22.9798 5.88 22.9798 6.42C22.9798 6.96 22.8265 7.37667 22.5198 7.67C22.2132 7.96333 21.8132 8.11 21.3198 8.11C20.8265 8.11 20.4265 7.96333 20.1198 7.67C19.8132 7.37667 19.6598 6.96 19.6598 6.42ZM21.3098 5.73C21.1565 5.73 21.0365 5.78667 20.9498 5.9C20.8698 6.01333 20.8298 6.18667 20.8298 6.42C20.8298 6.87333 20.9898 7.1 21.3098 7.1C21.4632 7.1 21.5832 7.04333 21.6698 6.93C21.7565 6.81667 21.7998 6.64667 21.7998 6.42C21.7998 6.19333 21.7565 6.02333 21.6698 5.91C21.5832 5.79 21.4632 5.73 21.3098 5.73Z" fill="#0BA82F"/>
</svg>
