<svg width="25" height="9" viewBox="0 0 25 9" fill="none" xmlns="http://www.w3.org/2000/svg">
<path d="M5.92 5.05H4.03V6.99H2.71V5.05H0.82V3.83H2.71V1.89H4.03V3.83H5.92V5.05ZM7.09828 2V0.71H9.50828V8H8.06828V2H7.09828ZM15.7913 1.92H12.5513V3.63C12.6913 3.45667 12.8913 3.31667 13.1513 3.21C13.4113 3.09667 13.688 3.04 13.9813 3.04C14.5147 3.04 14.9513 3.15667 15.2913 3.39C15.6313 3.62333 15.878 3.92333 16.0313 4.29C16.1847 4.65 16.2613 5.03667 16.2613 5.45C16.2613 6.21667 16.0413 6.83333 15.6013 7.3C15.168 7.76667 14.548 8 13.7413 8C12.9813 8 12.3747 7.81 11.9213 7.43C11.468 7.05 11.2113 6.55333 11.1513 5.94H12.5113C12.5713 6.20667 12.7047 6.42 12.9113 6.58C13.1247 6.74 13.3947 6.82 13.7213 6.82C14.1147 6.82 14.4113 6.69667 14.6113 6.45C14.8113 6.20333 14.9113 5.87667 14.9113 5.47C14.9113 5.05667 14.808 4.74333 14.6013 4.53C14.4013 4.31 14.1047 4.2 13.7113 4.2C13.4313 4.2 13.198 4.27 13.0113 4.41C12.8247 4.55 12.6913 4.73667 12.6113 4.97H11.2713V0.69H15.7913V1.92ZM17.1669 2.5C17.1669 1.99333 17.3135 1.59667 17.6069 1.31C17.9069 1.02333 18.2902 0.88 18.7569 0.88C19.2235 0.88 19.6035 1.02333 19.8969 1.31C20.1969 1.59667 20.3469 1.99333 20.3469 2.5C20.3469 3.01333 20.1969 3.41333 19.8969 3.7C19.6035 3.98667 19.2235 4.13 18.7569 4.13C18.2902 4.13 17.9069 3.98667 17.6069 3.7C17.3135 3.41333 17.1669 3.01333 17.1669 2.5ZM23.5869 1L19.6569 8H18.2969L22.2169 1H23.5869ZM18.7469 1.72C18.3802 1.72 18.1969 1.98 18.1969 2.5C18.1969 3.02667 18.3802 3.29 18.7469 3.29C18.9269 3.29 19.0669 3.22667 19.1669 3.1C19.2669 2.96667 19.3169 2.76667 19.3169 2.5C19.3169 1.98 19.1269 1.72 18.7469 1.72ZM21.5569 6.49C21.5569 5.97667 21.7035 5.58 21.9969 5.3C22.2969 5.01333 22.6802 4.87 23.1469 4.87C23.6135 4.87 23.9902 5.01333 24.2769 5.3C24.5702 5.58 24.7169 5.97667 24.7169 6.49C24.7169 7.00333 24.5702 7.40333 24.2769 7.69C23.9902 7.97667 23.6135 8.12 23.1469 8.12C22.6735 8.12 22.2902 7.97667 21.9969 7.69C21.7035 7.40333 21.5569 7.00333 21.5569 6.49ZM23.1369 5.71C22.7569 5.71 22.5669 5.97 22.5669 6.49C22.5669 7.01667 22.7569 7.28 23.1369 7.28C23.5102 7.28 23.6969 7.01667 23.6969 6.49C23.6969 5.97 23.5102 5.71 23.1369 5.71Z" fill="#3386FF"/>
</svg>
