<svg width="163" height="161" viewBox="0 0 163 161" fill="none" xmlns="http://www.w3.org/2000/svg">
<g filter="url(#filter0_d_553_12946)">
<rect x="11" y="8" width="139" height="137" rx="9" fill="white"/>
<ellipse cx="81.5" cy="43" rx="22" ry="21" fill="#5298FF" fill-opacity="0.33"/>
<path d="M45.352 78.66V87H43.984V81.288L41.44 87H40.492L37.936 81.288V87H36.568V78.66H38.044L40.972 85.2L43.888 78.66H45.352ZM47.846 79.512C47.598 79.512 47.39 79.428 47.222 79.26C47.054 79.092 46.97 78.884 46.97 78.636C46.97 78.388 47.054 78.18 47.222 78.012C47.39 77.844 47.598 77.76 47.846 77.76C48.086 77.76 48.29 77.844 48.458 78.012C48.626 78.18 48.71 78.388 48.71 78.636C48.71 78.884 48.626 79.092 48.458 79.26C48.29 79.428 48.086 79.512 47.846 79.512ZM48.518 80.388V87H47.15V80.388H48.518ZM53.6501 80.28C54.1701 80.28 54.6341 80.388 55.0421 80.604C55.4581 80.82 55.7821 81.14 56.0141 81.564C56.2461 81.988 56.3621 82.5 56.3621 83.1V87H55.0061V83.304C55.0061 82.712 54.8581 82.26 54.5621 81.948C54.2661 81.628 53.8621 81.468 53.3501 81.468C52.8381 81.468 52.4301 81.628 52.1261 81.948C51.8301 82.26 51.6821 82.712 51.6821 83.304V87H50.3141V80.388H51.6821V81.144C51.9061 80.872 52.1901 80.66 52.5341 80.508C52.8861 80.356 53.2581 80.28 53.6501 80.28ZM58.803 79.512C58.555 79.512 58.347 79.428 58.179 79.26C58.011 79.092 57.927 78.884 57.927 78.636C57.927 78.388 58.011 78.18 58.179 78.012C58.347 77.844 58.555 77.76 58.803 77.76C59.043 77.76 59.247 77.844 59.415 78.012C59.583 78.18 59.667 78.388 59.667 78.636C59.667 78.884 59.583 79.092 59.415 79.26C59.247 79.428 59.043 79.512 58.803 79.512ZM59.475 80.388V87H58.107V80.388H59.475ZM67.1363 87.084C66.5763 87.084 66.0723 86.988 65.6243 86.796C65.1763 86.596 64.8243 86.316 64.5683 85.956C64.3123 85.596 64.1843 85.176 64.1843 84.696H65.6483C65.6803 85.056 65.8203 85.352 66.0683 85.584C66.3243 85.816 66.6803 85.932 67.1363 85.932C67.6083 85.932 67.9763 85.82 68.2403 85.596C68.5043 85.364 68.6363 85.068 68.6363 84.708C68.6363 84.428 68.5523 84.2 68.3843 84.024C68.2243 83.848 68.0203 83.712 67.7723 83.616C67.5323 83.52 67.1963 83.416 66.7643 83.304C66.2203 83.16 65.7763 83.016 65.4323 82.872C65.0963 82.72 64.8083 82.488 64.5683 82.176C64.3283 81.864 64.2083 81.448 64.2083 80.928C64.2083 80.448 64.3283 80.028 64.5683 79.668C64.8083 79.308 65.1443 79.032 65.5763 78.84C66.0083 78.648 66.5083 78.552 67.0763 78.552C67.8843 78.552 68.5443 78.756 69.0563 79.164C69.5763 79.564 69.8643 80.116 69.9203 80.82H68.4083C68.3843 80.516 68.2403 80.256 67.9763 80.04C67.7123 79.824 67.3643 79.716 66.9323 79.716C66.5403 79.716 66.2203 79.816 65.9723 80.016C65.7243 80.216 65.6003 80.504 65.6003 80.88C65.6003 81.136 65.6763 81.348 65.8283 81.516C65.9883 81.676 66.1883 81.804 66.4283 81.9C66.6683 81.996 66.9963 82.1 67.4123 82.212C67.9643 82.364 68.4123 82.516 68.7563 82.668C69.1083 82.82 69.4043 83.056 69.6443 83.376C69.8923 83.688 70.0163 84.108 70.0163 84.636C70.0163 85.06 69.9003 85.46 69.6683 85.836C69.4443 86.212 69.1123 86.516 68.6723 86.748C68.2403 86.972 67.7283 87.084 67.1363 87.084ZM73.2265 81.504V85.164C73.2265 85.412 73.2825 85.592 73.3945 85.704C73.5145 85.808 73.7145 85.86 73.9945 85.86H74.8345V87H73.7545C73.1385 87 72.6665 86.856 72.3385 86.568C72.0105 86.28 71.8465 85.812 71.8465 85.164V81.504H71.0665V80.388H71.8465V78.744H73.2265V80.388H74.8345V81.504H73.2265ZM75.6393 83.664C75.6393 83 75.7753 82.412 76.0473 81.9C76.3273 81.388 76.7033 80.992 77.1753 80.712C77.6553 80.424 78.1833 80.28 78.7593 80.28C79.2793 80.28 79.7313 80.384 80.1153 80.592C80.5073 80.792 80.8193 81.044 81.0513 81.348V80.388H82.4313V87H81.0513V86.016C80.8193 86.328 80.5033 86.588 80.1033 86.796C79.7033 87.004 79.2473 87.108 78.7353 87.108C78.1673 87.108 77.6473 86.964 77.1753 86.676C76.7033 86.38 76.3273 85.972 76.0473 85.452C75.7753 84.924 75.6393 84.328 75.6393 83.664ZM81.0513 83.688C81.0513 83.232 80.9553 82.836 80.7633 82.5C80.5793 82.164 80.3353 81.908 80.0313 81.732C79.7273 81.556 79.3993 81.468 79.0473 81.468C78.6953 81.468 78.3673 81.556 78.0633 81.732C77.7593 81.9 77.5113 82.152 77.3193 82.488C77.1353 82.816 77.0433 83.208 77.0433 83.664C77.0433 84.12 77.1353 84.52 77.3193 84.864C77.5113 85.208 77.7593 85.472 78.0633 85.656C78.3753 85.832 78.7033 85.92 79.0473 85.92C79.3993 85.92 79.7273 85.832 80.0313 85.656C80.3353 85.48 80.5793 85.224 80.7633 84.888C80.9553 84.544 81.0513 84.144 81.0513 83.688ZM85.8241 81.504V85.164C85.8241 85.412 85.8801 85.592 85.9921 85.704C86.1121 85.808 86.3121 85.86 86.5921 85.86H87.4321V87H86.3521C85.7361 87 85.2641 86.856 84.9361 86.568C84.6081 86.28 84.4441 85.812 84.4441 85.164V81.504H83.6641V80.388H84.4441V78.744H85.8241V80.388H87.4321V81.504H85.8241ZM94.753 83.532C94.753 83.78 94.737 84.004 94.705 84.204H89.653C89.693 84.732 89.889 85.156 90.241 85.476C90.593 85.796 91.025 85.956 91.537 85.956C92.273 85.956 92.793 85.648 93.097 85.032H94.573C94.373 85.64 94.009 86.14 93.481 86.532C92.961 86.916 92.313 87.108 91.537 87.108C90.905 87.108 90.337 86.968 89.833 86.688C89.337 86.4 88.945 86 88.657 85.488C88.377 84.968 88.237 84.368 88.237 83.688C88.237 83.008 88.373 82.412 88.645 81.9C88.925 81.38 89.313 80.98 89.809 80.7C90.313 80.42 90.889 80.28 91.537 80.28C92.161 80.28 92.717 80.416 93.205 80.688C93.693 80.96 94.073 81.344 94.345 81.84C94.617 82.328 94.753 82.892 94.753 83.532ZM93.325 83.1C93.317 82.596 93.137 82.192 92.785 81.888C92.433 81.584 91.997 81.432 91.477 81.432C91.005 81.432 90.601 81.584 90.265 81.888C89.929 82.184 89.729 82.588 89.665 83.1H93.325ZM104.103 80.28C104.623 80.28 105.087 80.388 105.495 80.604C105.911 80.82 106.235 81.14 106.467 81.564C106.707 81.988 106.827 82.5 106.827 83.1V87H105.471V83.304C105.471 82.712 105.323 82.26 105.027 81.948C104.731 81.628 104.327 81.468 103.815 81.468C103.303 81.468 102.895 81.628 102.591 81.948C102.295 82.26 102.147 82.712 102.147 83.304V87H100.791V83.304C100.791 82.712 100.643 82.26 100.347 81.948C100.051 81.628 99.6472 81.468 99.1352 81.468C98.6232 81.468 98.2152 81.628 97.9112 81.948C97.6152 82.26 97.4672 82.712 97.4672 83.304V87H96.0992V80.388H97.4672V81.144C97.6912 80.872 97.9752 80.66 98.3192 80.508C98.6632 80.356 99.0312 80.28 99.4232 80.28C99.9512 80.28 100.423 80.392 100.839 80.616C101.255 80.84 101.575 81.164 101.799 81.588C101.999 81.188 102.311 80.872 102.735 80.64C103.159 80.4 103.615 80.28 104.103 80.28ZM114.628 83.532C114.628 83.78 114.612 84.004 114.58 84.204H109.528C109.568 84.732 109.764 85.156 110.116 85.476C110.468 85.796 110.9 85.956 111.412 85.956C112.148 85.956 112.668 85.648 112.972 85.032H114.448C114.248 85.64 113.884 86.14 113.356 86.532C112.836 86.916 112.188 87.108 111.412 87.108C110.78 87.108 110.212 86.968 109.708 86.688C109.212 86.4 108.82 86 108.532 85.488C108.252 84.968 108.112 84.368 108.112 83.688C108.112 83.008 108.248 82.412 108.52 81.9C108.8 81.38 109.188 80.98 109.684 80.7C110.188 80.42 110.764 80.28 111.412 80.28C112.036 80.28 112.592 80.416 113.08 80.688C113.568 80.96 113.948 81.344 114.22 81.84C114.492 82.328 114.628 82.892 114.628 83.532ZM113.2 83.1C113.192 82.596 113.012 82.192 112.66 81.888C112.308 81.584 111.872 81.432 111.352 81.432C110.88 81.432 110.476 81.584 110.14 81.888C109.804 82.184 109.604 82.588 109.54 83.1H113.2ZM119.31 80.28C119.83 80.28 120.294 80.388 120.702 80.604C121.118 80.82 121.442 81.14 121.674 81.564C121.906 81.988 122.022 82.5 122.022 83.1V87H120.666V83.304C120.666 82.712 120.518 82.26 120.222 81.948C119.926 81.628 119.522 81.468 119.01 81.468C118.498 81.468 118.09 81.628 117.786 81.948C117.49 82.26 117.342 82.712 117.342 83.304V87H115.974V80.388H117.342V81.144C117.566 80.872 117.85 80.66 118.194 80.508C118.546 80.356 118.918 80.28 119.31 80.28ZM125.363 81.504V85.164C125.363 85.412 125.419 85.592 125.531 85.704C125.651 85.808 125.851 85.86 126.131 85.86H126.971V87H125.891C125.275 87 124.803 86.856 124.475 86.568C124.147 86.28 123.983 85.812 123.983 85.164V81.504H123.203V80.388H123.983V78.744H125.363V80.388H126.971V81.504H125.363Z" fill="#3386FF"/>
<path d="M64.7548 105.04C64.5948 104.672 64.3495 104.384 64.0188 104.176C63.6935 103.963 63.3095 103.856 62.8668 103.856C62.4508 103.856 62.0775 103.952 61.7468 104.144C61.4162 104.336 61.1548 104.611 60.9628 104.968C60.7708 105.32 60.6748 105.731 60.6748 106.2C60.6748 106.669 60.7708 107.083 60.9628 107.44C61.1548 107.797 61.4162 108.072 61.7468 108.264C62.0775 108.456 62.4508 108.552 62.8668 108.552C63.2562 108.552 63.6055 108.469 63.9148 108.304C64.2295 108.133 64.4802 107.893 64.6668 107.584C64.8588 107.269 64.9682 106.904 64.9948 106.488H62.6428V106.032H65.5868V106.44C65.5602 106.931 65.4268 107.376 65.1868 107.776C64.9468 108.171 64.6242 108.483 64.2188 108.712C63.8188 108.941 63.3682 109.056 62.8668 109.056C62.3495 109.056 61.8802 108.936 61.4588 108.696C61.0375 108.451 60.7042 108.112 60.4588 107.68C60.2188 107.243 60.0988 106.749 60.0988 106.2C60.0988 105.651 60.2188 105.16 60.4588 104.728C60.7042 104.291 61.0375 103.952 61.4588 103.712C61.8802 103.467 62.3495 103.344 62.8668 103.344C63.4642 103.344 63.9868 103.493 64.4348 103.792C64.8828 104.091 65.2082 104.507 65.4108 105.04H64.7548ZM70.5647 106.592C70.5647 106.784 70.5593 106.931 70.5487 107.032H66.9247C66.9407 107.363 67.0207 107.645 67.1647 107.88C67.3087 108.115 67.498 108.293 67.7327 108.416C67.9673 108.533 68.2233 108.592 68.5007 108.592C68.8633 108.592 69.1673 108.504 69.4127 108.328C69.6633 108.152 69.8287 107.915 69.9087 107.616H70.5007C70.394 108.043 70.1647 108.392 69.8127 108.664C69.466 108.931 69.0287 109.064 68.5007 109.064C68.09 109.064 67.722 108.973 67.3967 108.792C67.0713 108.605 66.8153 108.344 66.6287 108.008C66.4473 107.667 66.3567 107.269 66.3567 106.816C66.3567 106.363 66.4473 105.965 66.6287 105.624C66.81 105.283 67.0633 105.021 67.3887 104.84C67.714 104.659 68.0847 104.568 68.5007 104.568C68.9167 104.568 69.2793 104.659 69.5887 104.84C69.9033 105.021 70.1433 105.267 70.3087 105.576C70.4793 105.88 70.5647 106.219 70.5647 106.592ZM69.9967 106.576C70.002 106.251 69.9353 105.973 69.7967 105.744C69.6633 105.515 69.4793 105.341 69.2447 105.224C69.01 105.107 68.754 105.048 68.4767 105.048C68.0607 105.048 67.706 105.181 67.4127 105.448C67.1193 105.715 66.9567 106.091 66.9247 106.576H69.9967ZM72.3172 105.104V107.816C72.3172 108.083 72.3679 108.267 72.4692 108.368C72.5706 108.469 72.7492 108.52 73.0052 108.52H73.5172V109H72.9172C72.5226 109 72.2292 108.909 72.0372 108.728C71.8452 108.541 71.7492 108.237 71.7492 107.816V105.104H71.1412V104.632H71.7492V103.536H72.3172V104.632H73.5172V105.104H72.3172ZM77.1961 103.08V109H76.6361V103.08H77.1961ZM78.2082 106.808C78.2082 106.36 78.2962 105.968 78.4722 105.632C78.6536 105.291 78.9016 105.029 79.2162 104.848C79.5362 104.661 79.8962 104.568 80.2962 104.568C80.7122 104.568 81.0696 104.664 81.3682 104.856C81.6722 105.048 81.8909 105.293 82.0242 105.592V104.632H82.5842V109H82.0242V108.032C81.8856 108.331 81.6642 108.579 81.3602 108.776C81.0616 108.968 80.7042 109.064 80.2882 109.064C79.8936 109.064 79.5362 108.971 79.2162 108.784C78.9016 108.597 78.6536 108.333 78.4722 107.992C78.2962 107.651 78.2082 107.256 78.2082 106.808ZM82.0242 106.816C82.0242 106.464 81.9522 106.155 81.8082 105.888C81.6642 105.621 81.4669 105.416 81.2162 105.272C80.9709 105.128 80.6989 105.056 80.4002 105.056C80.0909 105.056 79.8136 105.125 79.5682 105.264C79.3229 105.403 79.1282 105.605 78.9842 105.872C78.8456 106.133 78.7762 106.445 78.7762 106.808C78.7762 107.165 78.8456 107.48 78.9842 107.752C79.1282 108.019 79.3229 108.224 79.5682 108.368C79.8136 108.507 80.0909 108.576 80.4002 108.576C80.6989 108.576 80.9709 108.504 81.2162 108.36C81.4669 108.216 81.6642 108.011 81.8082 107.744C81.9522 107.477 82.0242 107.168 82.0242 106.816ZM85.3667 109.064C84.8653 109.064 84.4547 108.949 84.1347 108.72C83.82 108.485 83.644 108.168 83.6067 107.768H84.1827C84.2093 108.013 84.324 108.213 84.5267 108.368C84.7347 108.517 85.012 108.592 85.3587 108.592C85.6627 108.592 85.9 108.52 86.0707 108.376C86.2467 108.232 86.3347 108.053 86.3347 107.84C86.3347 107.691 86.2867 107.568 86.1907 107.472C86.0947 107.376 85.972 107.301 85.8227 107.248C85.6787 107.189 85.4813 107.128 85.2307 107.064C84.9053 106.979 84.6413 106.893 84.4387 106.808C84.236 106.723 84.0627 106.597 83.9187 106.432C83.78 106.261 83.7107 106.035 83.7107 105.752C83.7107 105.539 83.7747 105.341 83.9027 105.16C84.0307 104.979 84.212 104.835 84.4467 104.728C84.6813 104.621 84.948 104.568 85.2467 104.568C85.716 104.568 86.0947 104.688 86.3827 104.928C86.6707 105.163 86.8253 105.488 86.8467 105.904H86.2867C86.2707 105.648 86.1693 105.443 85.9827 105.288C85.8013 105.128 85.5507 105.048 85.2307 105.048C84.948 105.048 84.7187 105.115 84.5427 105.248C84.3667 105.381 84.2787 105.547 84.2787 105.744C84.2787 105.915 84.3293 106.056 84.4307 106.168C84.5373 106.275 84.668 106.36 84.8227 106.424C84.9773 106.483 85.1853 106.549 85.4467 106.624C85.7613 106.709 86.012 106.792 86.1987 106.872C86.3853 106.952 86.5453 107.069 86.6787 107.224C86.812 107.379 86.8813 107.584 86.8867 107.84C86.8867 108.075 86.8227 108.285 86.6947 108.472C86.5667 108.653 86.388 108.797 86.1587 108.904C85.9293 109.011 85.6653 109.064 85.3667 109.064ZM88.6688 105.104V107.816C88.6688 108.083 88.7194 108.267 88.8208 108.368C88.9221 108.469 89.1008 108.52 89.3568 108.52H89.8688V109H89.2688C88.8741 109 88.5808 108.909 88.3888 108.728C88.1968 108.541 88.1008 108.237 88.1008 107.816V105.104H87.4928V104.632H88.1008V103.536H88.6688V104.632H89.8688V105.104H88.6688ZM96.4837 103.744H93.5557V105.792C93.689 105.605 93.8837 105.453 94.1397 105.336C94.3957 105.213 94.673 105.152 94.9717 105.152C95.409 105.152 95.7663 105.243 96.0437 105.424C96.321 105.6 96.521 105.832 96.6437 106.12C96.7663 106.403 96.8277 106.707 96.8277 107.032C96.8277 107.405 96.7557 107.744 96.6117 108.048C96.473 108.347 96.257 108.584 95.9637 108.76C95.6757 108.936 95.3157 109.024 94.8837 109.024C94.3343 109.024 93.889 108.883 93.5477 108.6C93.2063 108.312 92.9983 107.925 92.9237 107.44H93.4757C93.545 107.792 93.705 108.064 93.9557 108.256C94.2063 108.448 94.5157 108.544 94.8837 108.544C95.3477 108.544 95.697 108.408 95.9317 108.136C96.1717 107.859 96.2917 107.493 96.2917 107.04C96.2917 106.597 96.1717 106.253 95.9317 106.008C95.6917 105.757 95.3477 105.632 94.8997 105.632C94.5903 105.632 94.3183 105.704 94.0837 105.848C93.849 105.992 93.6757 106.187 93.5637 106.432H93.0357V103.256H96.4837V103.744ZM55.0946 116.104V118.816C55.0946 119.083 55.1452 119.267 55.2466 119.368C55.3479 119.469 55.5266 119.52 55.7826 119.52H56.2946V120H55.6946C55.2999 120 55.0066 119.909 54.8146 119.728C54.6226 119.541 54.5266 119.237 54.5266 118.816V116.104H53.9186V115.632H54.5266V114.536H55.0946V115.632H56.2946V116.104H55.0946ZM57.7781 116.408C57.9008 116.136 58.0875 115.925 58.3381 115.776C58.5941 115.627 58.9061 115.552 59.2741 115.552V116.136H59.1221C58.7168 116.136 58.3915 116.245 58.1461 116.464C57.9008 116.683 57.7781 117.048 57.7781 117.56V120H57.2181V115.632H57.7781V116.408ZM59.8606 117.808C59.8606 117.36 59.9486 116.968 60.1246 116.632C60.3059 116.291 60.5539 116.029 60.8686 115.848C61.1886 115.661 61.5486 115.568 61.9486 115.568C62.3646 115.568 62.7219 115.664 63.0206 115.856C63.3246 116.048 63.5432 116.293 63.6766 116.592V115.632H64.2366V120H63.6766V119.032C63.5379 119.331 63.3166 119.579 63.0126 119.776C62.7139 119.968 62.3566 120.064 61.9406 120.064C61.5459 120.064 61.1886 119.971 60.8686 119.784C60.5539 119.597 60.3059 119.333 60.1246 118.992C59.9486 118.651 59.8606 118.256 59.8606 117.808ZM63.6766 117.816C63.6766 117.464 63.6046 117.155 63.4606 116.888C63.3166 116.621 63.1192 116.416 62.8686 116.272C62.6232 116.128 62.3512 116.056 62.0526 116.056C61.7432 116.056 61.4659 116.125 61.2206 116.264C60.9752 116.403 60.7806 116.605 60.6366 116.872C60.4979 117.133 60.4286 117.445 60.4286 117.808C60.4286 118.165 60.4979 118.48 60.6366 118.752C60.7806 119.019 60.9752 119.224 61.2206 119.368C61.4659 119.507 61.7432 119.576 62.0526 119.576C62.3512 119.576 62.6232 119.504 62.8686 119.36C63.1192 119.216 63.3166 119.011 63.4606 118.744C63.6046 118.477 63.6766 118.168 63.6766 117.816ZM67.563 115.552C68.0857 115.552 68.5123 115.715 68.843 116.04C69.1737 116.36 69.339 116.827 69.339 117.44V120H68.787V117.504C68.787 117.029 68.667 116.667 68.427 116.416C68.1923 116.165 67.8697 116.04 67.459 116.04C67.0377 116.04 66.7017 116.173 66.451 116.44C66.2003 116.707 66.075 117.099 66.075 117.616V120H65.515V115.632H66.075V116.376C66.2137 116.109 66.4137 115.907 66.675 115.768C66.9363 115.624 67.2323 115.552 67.563 115.552ZM72.0815 120.064C71.5802 120.064 71.1695 119.949 70.8495 119.72C70.5348 119.485 70.3588 119.168 70.3215 118.768H70.8975C70.9242 119.013 71.0388 119.213 71.2415 119.368C71.4495 119.517 71.7268 119.592 72.0735 119.592C72.3775 119.592 72.6148 119.52 72.7855 119.376C72.9615 119.232 73.0495 119.053 73.0495 118.84C73.0495 118.691 73.0015 118.568 72.9055 118.472C72.8095 118.376 72.6868 118.301 72.5375 118.248C72.3935 118.189 72.1962 118.128 71.9455 118.064C71.6202 117.979 71.3562 117.893 71.1535 117.808C70.9508 117.723 70.7775 117.597 70.6335 117.432C70.4948 117.261 70.4255 117.035 70.4255 116.752C70.4255 116.539 70.4895 116.341 70.6175 116.16C70.7455 115.979 70.9268 115.835 71.1615 115.728C71.3962 115.621 71.6628 115.568 71.9615 115.568C72.4308 115.568 72.8095 115.688 73.0975 115.928C73.3855 116.163 73.5402 116.488 73.5615 116.904H73.0015C72.9855 116.648 72.8842 116.443 72.6975 116.288C72.5162 116.128 72.2655 116.048 71.9455 116.048C71.6628 116.048 71.4335 116.115 71.2575 116.248C71.0815 116.381 70.9935 116.547 70.9935 116.744C70.9935 116.915 71.0442 117.056 71.1455 117.168C71.2522 117.275 71.3828 117.36 71.5375 117.424C71.6922 117.483 71.9002 117.549 72.1615 117.624C72.4762 117.709 72.7268 117.792 72.9135 117.872C73.1002 117.952 73.2602 118.069 73.3935 118.224C73.5268 118.379 73.5962 118.584 73.6015 118.84C73.6015 119.075 73.5375 119.285 73.4095 119.472C73.2815 119.653 73.1028 119.797 72.8735 119.904C72.6442 120.011 72.3802 120.064 72.0815 120.064ZM74.3996 117.808C74.3996 117.36 74.4876 116.968 74.6636 116.632C74.845 116.291 75.093 116.029 75.4076 115.848C75.7276 115.661 76.0876 115.568 76.4876 115.568C76.9036 115.568 77.261 115.664 77.5596 115.856C77.8636 116.048 78.0823 116.293 78.2156 116.592V115.632H78.7756V120H78.2156V119.032C78.077 119.331 77.8556 119.579 77.5516 119.776C77.253 119.968 76.8956 120.064 76.4796 120.064C76.085 120.064 75.7276 119.971 75.4076 119.784C75.093 119.597 74.845 119.333 74.6636 118.992C74.4876 118.651 74.3996 118.256 74.3996 117.808ZM78.2156 117.816C78.2156 117.464 78.1436 117.155 77.9996 116.888C77.8556 116.621 77.6583 116.416 77.4076 116.272C77.1623 116.128 76.8903 116.056 76.5916 116.056C76.2823 116.056 76.005 116.125 75.7596 116.264C75.5143 116.403 75.3196 116.605 75.1756 116.872C75.037 117.133 74.9676 117.445 74.9676 117.808C74.9676 118.165 75.037 118.48 75.1756 118.752C75.3196 119.019 75.5143 119.224 75.7596 119.368C76.005 119.507 76.2823 119.576 76.5916 119.576C76.8903 119.576 77.1623 119.504 77.4076 119.36C77.6583 119.216 77.8556 119.011 77.9996 118.744C78.1436 118.477 78.2156 118.168 78.2156 117.816ZM79.7981 117.816C79.7981 117.363 79.8887 116.968 80.0701 116.632C80.2514 116.291 80.5021 116.029 80.8221 115.848C81.1421 115.661 81.5074 115.568 81.9181 115.568C82.4567 115.568 82.8994 115.701 83.2461 115.968C83.5981 116.235 83.8247 116.597 83.9261 117.056H83.3261C83.2514 116.741 83.0887 116.496 82.8381 116.32C82.5927 116.139 82.2861 116.048 81.9181 116.048C81.6247 116.048 81.3607 116.115 81.1261 116.248C80.8914 116.381 80.7047 116.581 80.5661 116.848C80.4327 117.109 80.3661 117.432 80.3661 117.816C80.3661 118.2 80.4327 118.525 80.5661 118.792C80.7047 119.059 80.8914 119.259 81.1261 119.392C81.3607 119.525 81.6247 119.592 81.9181 119.592C82.2861 119.592 82.5927 119.504 82.8381 119.328C83.0887 119.147 83.2514 118.896 83.3261 118.576H83.9261C83.8247 119.024 83.5981 119.384 83.2461 119.656C82.8941 119.928 82.4514 120.064 81.9181 120.064C81.5074 120.064 81.1421 119.973 80.8221 119.792C80.5021 119.605 80.2514 119.344 80.0701 119.008C79.8887 118.667 79.7981 118.269 79.7981 117.816ZM85.6883 116.104V118.816C85.6883 119.083 85.739 119.267 85.8403 119.368C85.9416 119.469 86.1203 119.52 86.3763 119.52H86.8883V120H86.2883C85.8936 120 85.6003 119.909 85.4083 119.728C85.2163 119.541 85.1203 119.237 85.1203 118.816V116.104H84.5123V115.632H85.1203V114.536H85.6883V115.632H86.8883V116.104H85.6883ZM88.0919 114.808C87.9799 114.808 87.8839 114.768 87.8039 114.688C87.7239 114.608 87.6839 114.509 87.6839 114.392C87.6839 114.275 87.7239 114.179 87.8039 114.104C87.8839 114.024 87.9799 113.984 88.0919 113.984C88.2039 113.984 88.2999 114.024 88.3799 114.104C88.4599 114.179 88.4999 114.275 88.4999 114.392C88.4999 114.509 88.4599 114.608 88.3799 114.688C88.2999 114.768 88.2039 114.808 88.0919 114.808ZM88.3719 115.632V120H87.8119V115.632H88.3719ZM91.552 120.064C91.1413 120.064 90.7707 119.973 90.44 119.792C90.1147 119.605 89.856 119.344 89.664 119.008C89.4773 118.667 89.384 118.269 89.384 117.816C89.384 117.363 89.48 116.968 89.672 116.632C89.864 116.291 90.1253 116.029 90.456 115.848C90.7867 115.661 91.1573 115.568 91.568 115.568C91.9787 115.568 92.3493 115.661 92.68 115.848C93.016 116.029 93.2773 116.291 93.464 116.632C93.656 116.968 93.752 117.363 93.752 117.816C93.752 118.264 93.656 118.659 93.464 119C93.272 119.341 93.008 119.605 92.672 119.792C92.336 119.973 91.9627 120.064 91.552 120.064ZM91.552 119.576C91.84 119.576 92.1067 119.512 92.352 119.384C92.5973 119.251 92.7947 119.053 92.944 118.792C93.0987 118.525 93.176 118.2 93.176 117.816C93.176 117.432 93.1013 117.109 92.952 116.848C92.8027 116.581 92.6053 116.384 92.36 116.256C92.1147 116.123 91.848 116.056 91.56 116.056C91.272 116.056 91.0053 116.123 90.76 116.256C90.5147 116.384 90.3173 116.581 90.168 116.848C90.024 117.109 89.952 117.432 89.952 117.816C89.952 118.2 90.024 118.525 90.168 118.792C90.3173 119.053 90.512 119.251 90.752 119.384C90.9973 119.512 91.264 119.576 91.552 119.576ZM96.8208 115.552C97.3435 115.552 97.7701 115.715 98.1008 116.04C98.4315 116.36 98.5968 116.827 98.5968 117.44V120H98.0448V117.504C98.0448 117.029 97.9248 116.667 97.6848 116.416C97.4501 116.165 97.1275 116.04 96.7168 116.04C96.2955 116.04 95.9595 116.173 95.7088 116.44C95.4581 116.707 95.3328 117.099 95.3328 117.616V120H94.7728V115.632H95.3328V116.376C95.4715 116.109 95.6715 115.907 95.9328 115.768C96.1941 115.624 96.4901 115.552 96.8208 115.552ZM101.339 120.064C100.838 120.064 100.427 119.949 100.107 119.72C99.7926 119.485 99.6166 119.168 99.5793 118.768H100.155C100.182 119.013 100.297 119.213 100.499 119.368C100.707 119.517 100.985 119.592 101.331 119.592C101.635 119.592 101.873 119.52 102.043 119.376C102.219 119.232 102.307 119.053 102.307 118.84C102.307 118.691 102.259 118.568 102.163 118.472C102.067 118.376 101.945 118.301 101.795 118.248C101.651 118.189 101.454 118.128 101.203 118.064C100.878 117.979 100.614 117.893 100.411 117.808C100.209 117.723 100.035 117.597 99.8913 117.432C99.7526 117.261 99.6833 117.035 99.6833 116.752C99.6833 116.539 99.7473 116.341 99.8753 116.16C100.003 115.979 100.185 115.835 100.419 115.728C100.654 115.621 100.921 115.568 101.219 115.568C101.689 115.568 102.067 115.688 102.355 115.928C102.643 116.163 102.798 116.488 102.819 116.904H102.259C102.243 116.648 102.142 116.443 101.955 116.288C101.774 116.128 101.523 116.048 101.203 116.048C100.921 116.048 100.691 116.115 100.515 116.248C100.339 116.381 100.251 116.547 100.251 116.744C100.251 116.915 100.302 117.056 100.403 117.168C100.51 117.275 100.641 117.36 100.795 117.424C100.95 117.483 101.158 117.549 101.419 117.624C101.734 117.709 101.985 117.792 102.171 117.872C102.358 117.952 102.518 118.069 102.651 118.224C102.785 118.379 102.854 118.584 102.859 118.84C102.859 119.075 102.795 119.285 102.667 119.472C102.539 119.653 102.361 119.797 102.131 119.904C101.902 120.011 101.638 120.064 101.339 120.064Z" fill="#9A9595"/>
<path d="M71 43H74.3636H77.1121C77.4748 43 77.7921 42.756 77.8853 42.4055L80.0662 34.1983C80.2943 33.3399 81.5423 33.437 81.635 34.3203L83.2636 49.8463C83.3614 50.7788 84.7074 50.8112 84.8499 49.8845L85.8047 43.6784C85.8648 43.2881 86.2006 43 86.5954 43H93" stroke="#3386FF"/>
<rect x="55.5" y="130" width="52" height="11" rx="5.5" fill="#5298FF" fill-opacity="0.33"/>
<path d="M81.297 133.656V133.816H82.417V134.232H81.265C81.2223 134.611 81.121 134.904 80.961 135.112C80.8063 135.315 80.5717 135.461 80.257 135.552C79.9423 135.637 79.5157 135.68 78.977 135.68V136.432C78.977 137.232 79.329 137.632 80.033 137.632C80.3743 137.632 80.6303 137.533 80.801 137.336C80.9717 137.139 81.057 136.856 81.057 136.488H81.577C81.5717 137.011 81.4357 137.408 81.169 137.68C80.9023 137.947 80.521 138.08 80.025 138.08C79.5077 138.08 79.1157 137.936 78.849 137.648C78.5823 137.355 78.449 136.949 78.449 136.432V135.28C79.073 135.28 79.5343 135.256 79.833 135.208C80.137 135.16 80.3557 135.064 80.489 134.92C80.6277 134.776 80.713 134.547 80.745 134.232H78.065V133.816H80.769V133.648V132.824H78.065V132.4H82.417V132.824H81.297V133.656ZM83.2049 137.56C84.1862 136.824 84.9435 136.165 85.4769 135.584C86.0155 134.997 86.2849 134.424 86.2849 133.864C86.2849 133.496 86.1915 133.203 86.0049 132.984C85.8235 132.76 85.5249 132.648 85.1089 132.648C84.7035 132.648 84.3889 132.776 84.1649 133.032C83.9462 133.283 83.8235 133.619 83.7969 134.04H83.2529C83.2849 133.448 83.4662 132.989 83.7969 132.664C84.1329 132.333 84.5702 132.168 85.1089 132.168C85.6262 132.168 86.0449 132.315 86.3649 132.608C86.6849 132.896 86.8449 133.307 86.8449 133.84C86.8449 134.485 86.5755 135.112 86.0369 135.72C85.5035 136.323 84.8449 136.912 84.0609 137.488H87.0209V137.96H83.2049V137.56Z" fill="#3386FF"/>
</g>
<defs>
<filter id="filter0_d_553_12946" x="0.1" y="0.1" width="162.8" height="160.8" filterUnits="userSpaceOnUse" color-interpolation-filters="sRGB">
<feFlood flood-opacity="0" result="BackgroundImageFix"/>
<feColorMatrix in="SourceAlpha" type="matrix" values="0 0 0 0 0 0 0 0 0 0 0 0 0 0 0 0 0 0 127 0" result="hardAlpha"/>
<feMorphology radius="3" operator="dilate" in="SourceAlpha" result="effect1_dropShadow_553_12946"/>
<feOffset dx="1" dy="4"/>
<feGaussianBlur stdDeviation="4.45"/>
<feComposite in2="hardAlpha" operator="out"/>
<feColorMatrix type="matrix" values="0 0 0 0 0.55 0 0 0 0 0.55 0 0 0 0 0.55 0 0 0 0.11 0"/>
<feBlend mode="normal" in2="BackgroundImageFix" result="effect1_dropShadow_553_12946"/>
<feBlend mode="normal" in="SourceGraphic" in2="effect1_dropShadow_553_12946" result="shape"/>
</filter>
</defs>
</svg>
