<svg width="17" height="17" viewBox="0 0 17 17" fill="none" xmlns="http://www.w3.org/2000/svg">
<path d="M7.70703 12.457H9.29036V9.29036H12.457V7.70703H9.29036V4.54036H7.70703V7.70703H4.54036V9.29036H7.70703V12.457ZM8.4987 16.4154C7.40356 16.4154 6.37439 16.2109 5.4112 15.8018C4.448 15.3796 3.61016 14.8122 2.89766 14.0997C2.18516 13.3872 1.6178 12.5494 1.19557 11.5862C0.786545 10.623 0.582031 9.59384 0.582031 8.4987C0.582031 7.40356 0.786545 6.37439 1.19557 5.4112C1.6178 4.448 2.18516 3.61016 2.89766 2.89766C3.61016 2.18516 4.448 1.62439 5.4112 1.21536C6.37439 0.793142 7.40356 0.582031 8.4987 0.582031C9.59384 0.582031 10.623 0.793142 11.5862 1.21536C12.5494 1.62439 13.3872 2.18516 14.0997 2.89766C14.8122 3.61016 15.373 4.448 15.782 5.4112C16.2043 6.37439 16.4154 7.40356 16.4154 8.4987C16.4154 9.59384 16.2043 10.623 15.782 11.5862C15.373 12.5494 14.8122 13.3872 14.0997 14.0997C13.3872 14.8122 12.5494 15.3796 11.5862 15.8018C10.623 16.2109 9.59384 16.4154 8.4987 16.4154ZM8.4987 14.832C10.2668 14.832 11.7643 14.2185 12.9914 12.9914C14.2185 11.7643 14.832 10.2668 14.832 8.4987C14.832 6.73064 14.2185 5.23307 12.9914 4.00599C11.7643 2.77891 10.2668 2.16536 8.4987 2.16536C6.73064 2.16536 5.23307 2.77891 4.00599 4.00599C2.77891 5.23307 2.16536 6.73064 2.16536 8.4987C2.16536 10.2668 2.77891 11.7643 4.00599 12.9914C5.23307 14.2185 6.73064 14.832 8.4987 14.832Z" fill="white"/>
</svg>
