<svg width="30" height="9" viewBox="0 0 30 9" fill="none" xmlns="http://www.w3.org/2000/svg">
<path d="M5.69 5.27H3.95V7.05H2.33V5.27H0.59V3.74H2.33V1.95H3.95V3.74H5.69V5.27ZM6.7893 2.76C6.81596 2.04667 7.0493 1.49667 7.4893 1.11C7.9293 0.723333 8.52596 0.53 9.2793 0.53C9.7793 0.53 10.206 0.616666 10.5593 0.79C10.9193 0.963333 11.1893 1.2 11.3693 1.5C11.556 1.8 11.6493 2.13667 11.6493 2.51C11.6493 2.95 11.5393 3.31 11.3193 3.59C11.0993 3.86333 10.8426 4.05 10.5493 4.15V4.19C10.9293 4.31667 11.2293 4.52667 11.4493 4.82C11.6693 5.11333 11.7793 5.49 11.7793 5.95C11.7793 6.36333 11.6826 6.73 11.4893 7.05C11.3026 7.36333 11.026 7.61 10.6593 7.79C10.2993 7.97 9.8693 8.06 9.3693 8.06C8.5693 8.06 7.9293 7.86333 7.4493 7.47C6.97596 7.07667 6.72596 6.48333 6.6993 5.69H8.3593C8.36596 5.98333 8.4493 6.21667 8.6093 6.39C8.7693 6.55667 9.00263 6.64 9.3093 6.64C9.5693 6.64 9.7693 6.56667 9.9093 6.42C10.056 6.26667 10.1293 6.06667 10.1293 5.82C10.1293 5.5 10.026 5.27 9.8193 5.13C9.6193 4.98333 9.29596 4.91 8.8493 4.91H8.5293V3.52H8.8493C9.1893 3.52 9.46263 3.46333 9.6693 3.35C9.88263 3.23 9.9893 3.02 9.9893 2.72C9.9893 2.48 9.92263 2.29333 9.7893 2.16C9.65596 2.02667 9.47263 1.96 9.2393 1.96C8.98596 1.96 8.79596 2.03667 8.6693 2.19C8.5493 2.34333 8.4793 2.53333 8.4593 2.76H6.7893ZM13.754 8.08C13.454 8.08 13.2073 7.99333 13.014 7.82C12.8273 7.64 12.734 7.42 12.734 7.16C12.734 6.89333 12.8273 6.67 13.014 6.49C13.2073 6.31 13.454 6.22 13.754 6.22C14.0473 6.22 14.2873 6.31 14.474 6.49C14.6673 6.67 14.764 6.89333 14.764 7.16C14.764 7.42 14.6673 7.64 14.474 7.82C14.2873 7.99333 14.0473 8.08 13.754 8.08ZM15.5463 6.63C15.7729 6.45 15.8763 6.36667 15.8563 6.38C16.5096 5.84 17.0229 5.39667 17.3963 5.05C17.7763 4.70333 18.0963 4.34 18.3563 3.96C18.6163 3.58 18.7463 3.21 18.7463 2.85C18.7463 2.57667 18.6829 2.36333 18.5563 2.21C18.4296 2.05667 18.2396 1.98 17.9863 1.98C17.7329 1.98 17.5329 2.07667 17.3863 2.27C17.2463 2.45667 17.1763 2.72333 17.1763 3.07H15.5263C15.5396 2.50333 15.6596 2.03 15.8863 1.65C16.1196 1.27 16.4229 0.99 16.7963 0.81C17.1763 0.63 17.5963 0.539999 18.0563 0.539999C18.8496 0.539999 19.4463 0.743333 19.8463 1.15C20.2529 1.55667 20.4563 2.08667 20.4563 2.74C20.4563 3.45333 20.2129 4.11667 19.7263 4.73C19.2396 5.33667 18.6196 5.93 17.8663 6.51H20.5663V7.9H15.5463V6.63ZM21.1791 2.54C21.1791 2 21.3325 1.58333 21.6391 1.29C21.9525 0.996666 22.3558 0.85 22.8491 0.85C23.3425 0.85 23.7425 0.996666 24.0491 1.29C24.3558 1.58333 24.5091 2 24.5091 2.54C24.5091 3.08 24.3558 3.49667 24.0491 3.79C23.7425 4.08333 23.3425 4.23 22.8491 4.23C22.3558 4.23 21.9525 4.08333 21.6391 3.79C21.3325 3.49667 21.1791 3.08 21.1791 2.54ZM27.9691 0.959999L24.1191 8H22.4691L26.3191 0.959999H27.9691ZM22.8391 1.85C22.5191 1.85 22.3591 2.08 22.3591 2.54C22.3591 2.99333 22.5191 3.22 22.8391 3.22C22.9925 3.22 23.1125 3.16333 23.1991 3.05C23.2858 2.93667 23.3291 2.76667 23.3291 2.54C23.3291 2.08 23.1658 1.85 22.8391 1.85ZM25.9391 6.42C25.9391 5.88 26.0925 5.46333 26.3991 5.17C26.7058 4.87667 27.1058 4.73 27.5991 4.73C28.0925 4.73 28.4925 4.87667 28.7991 5.17C29.1058 5.46333 29.2591 5.88 29.2591 6.42C29.2591 6.96 29.1058 7.37667 28.7991 7.67C28.4925 7.96333 28.0925 8.11 27.5991 8.11C27.1058 8.11 26.7058 7.96333 26.3991 7.67C26.0925 7.37667 25.9391 6.96 25.9391 6.42ZM27.5891 5.73C27.4358 5.73 27.3158 5.78667 27.2291 5.9C27.1491 6.01333 27.1091 6.18667 27.1091 6.42C27.1091 6.87333 27.2691 7.1 27.5891 7.1C27.7425 7.1 27.8625 7.04333 27.9491 6.93C28.0358 6.81667 28.0791 6.64667 28.0791 6.42C28.0791 6.19333 28.0358 6.02333 27.9491 5.91C27.8625 5.79 27.7425 5.73 27.5891 5.73Z" fill="#3386FF"/>
</svg>
