<svg width="14" height="16" viewBox="0 0 14 16" fill="none" xmlns="http://www.w3.org/2000/svg">
<mask id="path-1-inside-1_1346_1090" fill="white">
<path d="M2.27344 0.0625H13.641V13.4959H2.27344V0.0625Z"/>
</mask>
<path d="M13.641 0.0625H14.141V-0.4375H13.641V0.0625ZM2.27344 0.0625V0.5625H13.641V0.0625V-0.4375H2.27344V0.0625ZM13.641 0.0625H13.141V13.4959H13.641H14.141V0.0625H13.641Z" fill="white" mask="url(#path-1-inside-1_1346_1090)"/>
<rect x="0.249939" y="2.75488" width="10.8675" height="12.9334" stroke="white" stroke-width="0.5"/>
<path d="M7.76222 9.14256C7.76222 9.40923 7.69555 9.6599 7.56222 9.89456C7.43422 10.1292 7.24222 10.3266 6.98622 10.4866C6.73555 10.6466 6.43688 10.7426 6.09022 10.7746V11.4226H5.57022V10.7746C5.06888 10.7266 4.66355 10.5692 4.35422 10.3026C4.04488 10.0359 3.89022 9.6839 3.89022 9.24656H4.86622C4.88222 9.45456 4.94888 9.6279 5.06622 9.76656C5.18355 9.8999 5.35155 9.98523 5.57022 10.0226V8.26256C5.21288 8.1719 4.92222 8.08123 4.69822 7.99056C4.47422 7.89456 4.28222 7.74523 4.12222 7.54256C3.96755 7.3399 3.89022 7.06256 3.89022 6.71056C3.89022 6.2679 4.04488 5.90256 4.35422 5.61456C4.66355 5.32123 5.06888 5.15056 5.57022 5.10256V4.45456H6.09022V5.10256C6.55955 5.14523 6.93555 5.29456 7.21822 5.55056C7.50622 5.80123 7.66888 6.1479 7.70622 6.59056H6.73022C6.71422 6.42523 6.65022 6.27856 6.53822 6.15056C6.42622 6.01723 6.27688 5.92656 6.09022 5.87856V7.60656C6.44755 7.6919 6.73822 7.78256 6.96222 7.87856C7.18622 7.96923 7.37555 8.1159 7.53022 8.31856C7.68488 8.5159 7.76222 8.79056 7.76222 9.14256ZM4.81822 6.66256C4.81822 6.88123 4.88222 7.0519 5.01022 7.17456C5.14355 7.29723 5.33022 7.3959 5.57022 7.47056V5.85456C5.34088 5.88123 5.15688 5.9639 5.01822 6.10256C4.88488 6.24123 4.81822 6.4279 4.81822 6.66256ZM6.09022 10.0226C6.32488 9.98523 6.50888 9.8919 6.64222 9.74256C6.77555 9.5879 6.84222 9.4039 6.84222 9.19056C6.84222 8.97723 6.77555 8.8119 6.64222 8.69456C6.51422 8.5719 6.33022 8.47323 6.09022 8.39856V10.0226Z" fill="white"/>
</svg>
